<?xml version="1.0" standalone="no"?>
<!DOCTYPE svg PUBLIC "-//W3C//DTD SVG 20010904//EN"
 "http://www.w3.org/TR/2001/REC-SVG-20010904/DTD/svg10.dtd">
<svg version="1.0" xmlns="http://www.w3.org/2000/svg"
 width="500.000000pt" height="500.000000pt" viewBox="0 0 500.000000 500.000000"
 preserveAspectRatio="xMidYMid meet">
<metadata>
Created by potrace 1.11, written by Peter Selinger 2001-2013
</metadata>
<g transform="translate(0.000000,500.000000) scale(0.100000,-0.100000)"
fill="#000000" stroke="none">
<path d="M1955 4072 c-292 -158 -801 -436 -1132 -617 l-602 -329 37 -22 c64
-37 2166 -1181 2204 -1200 l37 -17 200 106 c111 59 481 259 823 446 343 186
676 366 741 401 l117 62 0 -721 0 -721 205 0 205 0 -2 831 -3 832 -695 379
c-382 208 -801 437 -930 507 -472 259 -645 351 -660 351 -8 0 -254 -130 -545
-288z m726 -274 c4 -6 15 -36 24 -66 11 -34 25 -57 39 -63 16 -8 29 -36 54
-117 18 -59 32 -113 32 -119 0 -9 -22 -13 -74 -13 -58 0 -86 5 -128 25 -102
47 -249 27 -331 -46 -86 -75 -126 -202 -99 -312 10 -38 9 -49 -8 -83 -28 -54
-26 -131 7 -237 30 -100 32 -97 -52 -122 l-49 -15 -38 37 c-35 34 -37 40 -31
77 3 23 9 50 13 61 10 25 -18 75 -41 75 -10 0 -40 5 -67 11 -47 11 -50 14 -65
61 l-16 50 45 48 c59 63 58 84 -7 145 -50 47 -51 49 -45 92 3 25 8 48 11 53 3
5 34 18 69 30 80 26 90 44 64 117 -24 70 -23 82 13 122 l31 34 68 -12 c92 -17
104 -9 120 80 l12 69 50 15 c51 15 51 15 88 -15 20 -16 43 -36 50 -45 21 -25
66 -8 113 42 41 44 42 45 91 39 27 -3 53 -11 57 -18z m289 -184 c0 -24 -2 -23
-62 23 -58 45 -61 48 -38 53 34 9 100 -42 100 -76z m-10 -70 c0 -11 -3 -23 -6
-27 -10 -10 -62 34 -68 58 -3 13 -9 31 -13 41 -4 12 8 7 40 -17 29 -21 46 -42
47 -55z m-16 -63 c17 -19 17 -20 -3 -30 -29 -16 -31 -14 -31 19 0 35 10 38 34
11z m151 -51 c15 -6 26 -23 35 -54 11 -41 10 -47 -8 -73 -11 -15 -29 -37 -41
-47 -37 -34 -28 -73 30 -125 l50 -46 -11 -52 -11 -51 -60 -19 c-85 -26 -98
-51 -68 -134 l22 -60 -30 -37 c-33 -40 -46 -43 -133 -28 -60 10 -85 -12 -94
-83 -8 -58 -22 -76 -76 -92 -38 -12 -40 -11 -88 30 -68 56 -96 55 -145 -4 -31
-36 -44 -45 -70 -45 -52 0 -78 11 -88 37 -8 22 -3 32 37 76 60 67 102 141 110
194 l6 43 57 0 c155 1 281 134 286 303 2 67 6 76 48 139 25 37 62 87 82 111
l37 44 50 -9 c27 -5 60 -13 73 -18z m-261 -112 c-9 -32 -10 -33 -39 -10 -23
18 -23 21 -8 25 44 11 55 8 47 -15z m-466 -464 c2 -1 7 -18 12 -38 l8 -36 -45
33 c-64 46 -93 74 -93 91 0 8 -3 22 -7 32 -4 11 19 -1 58 -31 35 -27 66 -50
67 -51z m-20 -79 c43 -31 48 -40 33 -64 -18 -29 -101 54 -101 100 0 11 9 7 68
-36z m-2 -92 l26 -16 -24 -13 c-34 -19 -38 -17 -38 16 0 35 2 36 36 13z"/>
<path d="M1047 2058 c-4 -99 -7 -283 -7 -407 l0 -226 598 -325 c328 -179 657
-356 731 -394 121 -62 136 -67 160 -57 14 7 342 184 728 394 l703 382 0 220
c0 121 -3 304 -7 407 l-6 187 -41 -21 c-23 -11 -345 -186 -717 -389 -372 -203
-682 -369 -690 -369 -14 0 29 -23 -808 434 -348 190 -634 346 -635 346 -2 0
-6 -82 -9 -182z"/>
</g>
</svg>
