<?xml version="1.0" standalone="no"?>
<!DOCTYPE svg PUBLIC "-//W3C//DTD SVG 20010904//EN"
        "http://www.w3.org/TR/2001/REC-SVG-20010904/DTD/svg10.dtd">
<svg version="1.0" xmlns="http://www.w3.org/2000/svg"
     width="500.000000pt" height="500.000000pt" viewBox="0 0 1920.000000 1920.000000"
     preserveAspectRatio="xMidYMid meet">

    <g transform="translate(0.000000,1920.000000) scale(0.100000,-0.100000)"
       fill="#000000" stroke="none">
        <path d="M9325 17873 c-381 -13 -858 -64 -1243 -134 -331 -60 -877 -205 -1195
-318 -346 -124 -384 -139 -644 -255 -936 -416 -1813 -1022 -2529 -1748 -626
-634 -1136 -1350 -1551 -2183 -73 -145 -234 -512 -281 -640 -159 -429 -212
-599 -312 -995 -148 -588 -213 -1058 -241 -1725 -23 -551 29 -1237 136 -1820
58 -312 200 -850 300 -1130 126 -356 162 -450 262 -675 199 -448 449 -898 723
-1301 600 -880 1326 -1607 2210 -2209 332 -226 841 -514 1165 -660 88 -39 203
-91 255 -115 184 -83 677 -257 921 -324 561 -155 943 -228 1459 -280 348 -36
560 -44 968 -38 503 7 820 35 1317 118 342 58 953 214 1225 314 52 19 176 64
275 99 99 36 295 116 435 180 1164 524 2190 1301 2988 2264 616 743 1104 1592
1422 2477 275 765 425 1494 480 2330 13 197 13 778 0 980 -34 536 -101 984
-217 1450 -89 361 -142 544 -235 805 -114 321 -144 397 -258 650 -338 753
-822 1498 -1385 2130 -218 246 -624 639 -835 811 -31 25 -91 74 -135 111 -125
103 -387 296 -573 421 -661 449 -1464 832 -2210 1057 -194 58 -709 185 -867
214 -626 113 -1240 159 -1830 139z m59 -635 c3 -13 6 -94 6 -180 l0 -158 205
0 205 0 0 180 0 180 49 0 49 0 6 -92 c3 -51 7 -236 9 -410 l3 -318 -53 0 -53
0 0 179 c0 108 -4 182 -10 186 -5 3 -100 3 -211 -1 l-201 -7 7 -184 7 -183
-56 0 -56 0 0 123 c0 68 -3 252 -7 410 l-6 285 29 5 c63 9 72 7 78 -15z m-388
-14 c17 -5 23 -16 28 -61 4 -31 5 -57 3 -60 -2 -2 -20 4 -40 12 -52 21 -171
19 -223 -4 -73 -33 -101 -93 -72 -156 15 -33 55 -57 171 -104 173 -69 230
-118 248 -214 28 -149 -86 -254 -286 -265 -55 -3 -113 0 -142 7 -50 12 -51 13
-57 58 -12 87 -12 87 37 61 50 -26 180 -36 243 -19 82 22 120 92 87 160 -22
44 -62 71 -156 107 -210 79 -277 148 -265 275 9 91 82 163 196 194 48 14 191
19 228 9z m1291 -8 c4 -3 -8 -183 -26 -399 -17 -215 -31 -398 -31 -404 0 -14
-77 -18 -97 -5 -8 5 -3 109 23 412 18 223 34 407 34 409 0 6 90 -6 97 -13z
m599 -85 c96 -43 136 -104 135 -211 0 -166 -108 -271 -275 -269 -34 0 -83 4
-111 9 -27 4 -51 7 -52 6 -1 -1 -12 -65 -23 -141 -12 -77 -23 -145 -25 -151
-2 -8 -17 -9 -51 -3 -26 5 -49 10 -50 12 -3 3 114 783 121 803 5 16 269 -28
331 -55z m-2648 -46 c82 -35 126 -106 126 -205 0 -78 -16 -113 -78 -167 l-45
-40 33 -15 c29 -14 286 -274 294 -297 2 -5 -14 -12 -35 -15 -21 -4 -47 -10
-59 -12 -16 -4 -43 20 -129 116 -137 152 -156 164 -241 157 -36 -2 -68 -7 -71
-11 -3 -3 9 -80 27 -171 18 -91 31 -167 29 -169 -2 -2 -25 -7 -51 -11 -44 -7
-47 -6 -53 16 -15 67 -155 763 -155 774 0 16 223 62 308 64 36 1 78 -5 100
-14z m3650 -175 c117 -35 142 -46 137 -59 -4 -9 -9 -28 -12 -43 -3 -16 -12
-28 -20 -28 -8 0 -74 18 -147 40 -73 22 -137 40 -142 40 -8 0 -40 -96 -81
-241 -3 -12 23 -23 129 -54 73 -21 136 -41 140 -44 8 -7 -11 -91 -21 -91 -3 0
-66 18 -140 40 -74 22 -136 38 -138 36 -3 -2 -26 -77 -53 -166 -27 -89 -51
-164 -53 -166 -8 -8 -97 18 -97 27 0 5 52 184 116 398 l116 389 62 -18 c33 -9
125 -37 204 -60z m-4278 -345 l272 -340 -32 -13 c-77 -31 -79 -30 -157 72
l-73 94 -137 -44 c-76 -24 -148 -47 -159 -50 -26 -7 -34 -43 -34 -166 l0 -87
-52 -16 c-28 -8 -53 -13 -56 -10 -6 6 37 787 46 839 6 33 13 41 42 52 19 7 42
12 52 11 9 -1 139 -155 288 -342z m4966 96 c217 -100 281 -328 160 -569 -114
-226 -331 -301 -550 -190 -61 31 -133 105 -163 167 -20 43 -28 75 -31 142 -4
75 -1 95 25 170 52 151 132 246 250 295 50 21 71 24 148 21 77 -2 101 -8 161
-36z m-5926 -401 c79 -181 144 -330 146 -330 1 0 66 27 144 61 78 33 147 58
153 56 12 -4 42 -76 35 -81 -14 -11 -389 -168 -393 -165 -6 6 -325 742 -325
750 0 7 68 38 86 38 6 1 76 -147 154 -329z m6528 115 c15 -8 33 -18 39 -23 10
-6 -24 -73 -127 -252 -158 -276 -174 -320 -146 -395 35 -90 154 -157 239 -134
70 19 116 77 257 324 72 127 135 234 140 238 10 11 91 -34 88 -49 -2 -6 -61
-113 -133 -239 -184 -323 -237 -375 -381 -375 -59 0 -81 5 -142 35 -92 44
-156 108 -177 178 -19 63 -19 78 0 152 16 62 288 555 307 555 5 0 21 -7 36
-15z m-6987 -72 c84 -39 156 -114 207 -213 73 -142 80 -268 23 -384 -39 -80
-101 -138 -199 -184 -68 -32 -84 -36 -157 -36 -70 0 -90 4 -148 32 -195 91
-318 363 -254 557 35 103 137 201 257 245 81 30 185 23 271 -17z m-651 -701
c132 -177 240 -326 240 -331 0 -4 -18 -21 -41 -37 -33 -23 -42 -25 -49 -14
-28 45 -206 279 -213 280 -4 0 -80 -54 -168 -121 -113 -85 -158 -124 -151
-132 5 -7 55 -74 110 -149 l101 -137 -40 -32 c-34 -27 -42 -30 -54 -18 -28 31
-475 639 -475 647 0 5 16 22 35 37 26 19 39 24 48 17 7 -6 55 -69 107 -141 52
-72 98 -129 103 -128 4 1 79 55 167 120 102 76 158 123 153 130 -4 7 -52 72
-107 145 -94 126 -98 134 -80 147 10 7 28 20 39 29 11 8 23 14 27 13 4 -1 116
-147 248 -325z m8434 292 l47 -36 -6 -61 c-5 -56 -55 -719 -55 -734 0 -3 91
116 202 265 217 292 202 279 260 230 l28 -23 -245 -327 c-134 -181 -247 -328
-251 -328 -3 0 -26 14 -50 32 -54 38 -52 -3 -19 470 14 199 24 362 23 363 -2
2 -92 -116 -200 -261 -109 -145 -203 -264 -210 -264 -7 0 -28 13 -46 28 l-33
27 246 328 c135 180 249 327 254 327 4 0 29 -16 55 -36z m-3919 -254 c493 -41
930 -129 1405 -282 861 -278 1627 -732 2308 -1367 193 -180 505 -528 669 -746
105 -139 327 -475 413 -625 104 -182 296 -572 368 -747 86 -211 170 -466 241
-738 94 -356 141 -611 175 -945 14 -135 18 -192 31 -498 7 -155 -11 -548 -36
-772 -57 -520 -202 -1107 -394 -1595 -223 -564 -612 -1210 -1002 -1665 -398
-464 -762 -789 -1268 -1132 -233 -158 -360 -231 -645 -374 -302 -151 -500
-234 -785 -329 -480 -161 -894 -251 -1395 -302 -238 -24 -858 -24 -1100 0
-496 50 -942 147 -1410 306 -505 171 -999 414 -1405 690 -487 331 -845 645
-1219 1071 -522 593 -972 1388 -1196 2110 -83 266 -170 622 -209 850 -108 633
-117 1266 -26 1898 40 277 82 465 190 857 153 552 409 1097 773 1646 235 355
456 623 772 939 288 289 553 504 936 762 216 145 379 238 686 388 732 357
1523 564 2336 610 175 10 618 4 787 -10z m-5419 -282 c49 -56 50 -53 -18 -86
-88 -41 -142 -91 -179 -167 -28 -58 -31 -71 -27 -137 4 -91 31 -148 105 -228
102 -111 231 -145 346 -92 62 28 146 115 177 184 13 29 26 55 27 57 6 8 62
-64 62 -79 2 -56 -142 -214 -235 -261 -43 -21 -63 -24 -154 -24 -96 0 -110 3
-165 29 -82 41 -183 143 -226 231 -32 66 -34 75 -34 180 0 104 2 114 32 176
18 36 54 87 80 114 49 49 156 125 178 125 6 0 20 -10 31 -22z m10272 -252 c23
-28 55 -76 70 -106 23 -48 27 -67 27 -145 0 -79 -4 -97 -29 -149 -36 -74 -143
-184 -212 -219 -114 -58 -242 -58 -360 0 -48 23 -266 207 -288 241 -3 5 123
143 280 306 l286 297 92 -87 c50 -48 110 -110 134 -138z m-10845 -332 c21 -20
37 -37 35 -39 -2 -1 -22 -12 -45 -24 -93 -47 -165 -138 -167 -212 -1 -35 5
-46 36 -75 50 -45 72 -44 221 12 181 68 273 70 348 7 108 -91 87 -259 -49
-392 -32 -31 -78 -67 -103 -80 l-46 -24 -47 39 c-45 38 -46 39 -24 48 107 42
166 86 209 155 41 64 39 113 -5 157 -49 49 -94 46 -249 -12 -192 -73 -280 -64
-354 33 -41 53 -45 151 -9 228 14 30 42 76 63 102 38 46 119 113 138 112 6 0
27 -16 48 -35z m11453 -326 c-6 -26 -417 -758 -424 -758 -4 0 -22 18 -40 41
l-34 40 55 97 c31 53 57 102 59 109 4 15 -199 263 -216 263 -7 0 -60 -18 -117
-39 l-104 -39 -32 37 c-18 20 -32 41 -33 47 0 5 186 73 413 151 l412 141 33
-36 c18 -21 31 -44 28 -54z m378 -484 c87 -125 160 -232 162 -238 5 -13 -63
-59 -75 -51 -5 3 -35 43 -67 90 -32 47 -61 85 -66 85 -5 0 -139 -90 -298 -200
-158 -110 -292 -200 -298 -200 -5 0 -21 18 -36 40 l-26 39 279 194 c154 106
289 200 300 208 21 14 20 16 -45 109 l-66 94 33 28 c18 15 36 28 40 28 3 0 77
-102 163 -226z m-12465 -13 l23 -18 -46 -27 c-52 -31 -107 -98 -132 -161 -22
-59 -13 -106 28 -140 48 -41 101 -32 224 37 115 64 181 88 238 88 86 -1 174
-69 197 -152 28 -104 -62 -290 -179 -371 l-41 -29 -45 32 c-52 35 -56 45 -21
54 67 17 195 176 195 244 0 36 -27 80 -60 97 -48 25 -89 18 -180 -30 -181 -97
-190 -100 -267 -100 -64 0 -75 3 -109 31 -70 57 -79 76 -79 172 0 77 4 94 30
146 17 33 55 86 86 119 l57 59 29 -17 c16 -9 40 -25 52 -34z m12749 -428 l22
-41 -347 -207 c-192 -114 -351 -209 -355 -212 -11 -6 -58 81 -49 90 20 20 687
416 696 413 6 -1 20 -21 33 -43z m-13053 -200 c66 -34 105 -94 105 -164 l0
-43 28 26 c47 44 90 61 147 56 139 -12 231 -139 204 -282 -7 -37 -123 -281
-144 -304 -7 -7 -725 380 -725 390 0 6 30 67 67 135 72 134 117 184 181 201
43 12 94 6 137 -15z m13117 -164 c142 -30 248 -137 293 -293 75 -258 -177
-519 -484 -504 -74 3 -95 9 -149 38 -79 42 -125 92 -171 189 -33 70 -36 83
-36 166 1 79 4 98 30 150 41 86 114 154 216 203 119 58 202 72 301 51z
m-13558 -404 c20 -8 36 -19 36 -24 0 -8 -106 -265 -116 -282 -2 -3 51 -29 117
-56 105 -45 120 -49 128 -34 5 9 30 68 56 131 27 63 50 117 51 119 6 7 84 -31
84 -41 0 -5 -18 -50 -39 -101 -21 -51 -46 -108 -54 -128 l-15 -35 112 -47 c61
-25 118 -49 127 -52 12 -5 29 26 79 145 34 82 67 150 73 150 22 0 77 -25 77
-35 0 -6 -34 -91 -76 -190 -42 -99 -79 -188 -83 -197 -5 -14 -59 6 -385 142
-208 87 -379 160 -381 162 -4 5 159 388 166 388 4 0 23 -7 43 -15z m14099
-468 c9 -30 17 -59 17 -65 0 -6 -98 -131 -217 -279 -119 -147 -231 -286 -249
-308 l-32 -40 319 107 320 107 10 -27 c6 -15 11 -38 12 -50 2 -22 -19 -31
-378 -153 -209 -71 -385 -127 -391 -125 -5 2 -16 23 -23 46 -7 23 -15 48 -17
54 -3 7 107 153 245 324 137 172 246 312 243 312 -4 0 -148 -47 -319 -104
l-312 -104 -15 46 c-9 25 -14 48 -11 51 9 8 747 259 766 260 10 1 21 -17 32
-52z m-14332 -168 c50 -17 53 -24 24 -55 -47 -50 -78 -123 -83 -196 -5 -66 -4
-68 31 -103 66 -66 116 -47 267 100 103 99 149 125 225 125 86 0 167 -52 194
-123 17 -45 13 -159 -9 -229 -19 -63 -91 -188 -108 -188 -9 0 -104 31 -110 35
-2 2 16 23 40 47 65 67 102 149 102 226 1 59 -1 66 -32 93 -25 22 -42 29 -75
29 -53 0 -68 -10 -189 -127 -107 -103 -158 -132 -231 -133 -142 0 -228 124
-199 291 12 71 51 171 79 201 19 21 28 22 74 7z m622 -3833 c57 -24 111 -87
146 -170 34 -82 52 -158 101 -421 61 -328 118 -522 215 -735 19 -41 57 -131
84 -199 57 -141 188 -382 265 -486 28 -38 64 -90 80 -115 16 -25 40 -57 54
-72 41 -45 18 -43 -34 3 -105 90 -304 393 -424 644 -122 256 -201 487 -346
1007 -11 37 -84 114 -140 148 -50 30 -67 35 -119 35 -42 -1 -73 -8 -102 -23
-107 -56 -245 -67 -342 -28 -55 22 -201 110 -201 120 0 3 25 -6 55 -20 30 -14
90 -33 133 -41 72 -15 81 -15 137 1 74 22 132 78 189 183 52 96 91 142 140
164 49 22 67 23 109 5z m13153 -5 c48 -22 88 -68 140 -162 68 -125 127 -174
234 -194 45 -8 165 17 236 49 30 14 54 23 54 20 0 -10 -147 -98 -203 -121 -55
-23 -72 -25 -153 -20 -74 4 -107 12 -180 42 -104 43 -156 43 -230 0 -95 -56
-128 -112 -184 -310 -69 -247 -150 -503 -196 -615 -105 -260 -259 -542 -398
-728 -70 -93 -172 -199 -182 -189 -3 2 16 33 41 68 142 196 172 241 240 367
40 75 88 173 105 217 18 44 58 136 90 205 69 145 141 338 169 448 33 127 90
419 105 537 22 166 76 298 147 355 67 54 101 60 165 31z m-8289 -5146 c16 -5
-14 -95 -32 -95 -7 0 -79 23 -160 50 -116 40 -150 48 -156 38 -5 -7 -26 -66
-48 -131 -28 -83 -36 -119 -28 -122 7 -3 73 -25 147 -51 74 -25 136 -47 137
-48 3 -3 -27 -96 -31 -96 -1 0 -68 22 -149 49 -148 50 -148 50 -156 28 -5 -12
-27 -74 -49 -138 l-41 -117 167 -57 c92 -31 169 -58 170 -60 5 -5 -18 -78 -27
-87 -12 -13 -446 138 -443 153 2 13 255 757 273 805 7 21 12 20 211 -48 112
-37 208 -70 215 -73z m3774 73 c4 -14 1 -52 -6 -83 -49 -208 -74 -572 -52
-756 l7 -66 -55 -15 -55 -15 -7 36 c-12 57 -9 365 6 481 7 58 21 152 32 209
11 57 19 105 17 107 -2 1 -93 -26 -203 -61 -110 -35 -203 -60 -206 -57 -4 4
-12 25 -19 47 -11 33 -11 40 1 44 96 36 499 159 513 158 12 -1 22 -13 27 -29z
m-3391 -159 c78 -18 160 -59 160 -81 0 -24 -21 -108 -27 -108 -2 0 -21 13 -41
30 -78 62 -230 90 -293 53 -40 -24 -63 -75 -54 -121 7 -38 22 -55 194 -215 93
-87 126 -153 118 -234 -16 -156 -157 -234 -350 -193 -83 17 -217 86 -217 111
0 18 20 110 25 117 1 1 19 -14 41 -35 85 -80 250 -126 321 -90 33 18 63 70 63
112 0 45 -25 77 -150 194 -160 150 -188 206 -156 313 18 63 73 122 132 143 46
17 171 19 234 4z m2736 -439 c50 -239 89 -438 85 -442 -3 -3 -27 -9 -53 -13
-40 -6 -47 -4 -52 12 -5 19 -146 691 -146 699 0 3 -27 -18 -61 -46 -33 -27
-73 -57 -89 -65 l-29 -15 -10 37 c-17 62 -14 70 46 110 31 20 86 66 122 101
36 34 72 61 80 60 12 -2 37 -106 107 -438z m-2213 334 l288 -39 -7 -50 c-3
-27 -7 -51 -8 -51 0 -1 -56 6 -124 15 -122 17 -123 17 -127 -3 -3 -12 -27
-185 -54 -385 -28 -200 -52 -365 -53 -366 -5 -4 -98 11 -103 17 -3 3 18 172
46 376 28 204 49 378 46 385 -3 9 -43 18 -116 26 -61 8 -114 18 -117 23 -3 5
-3 30 1 55 5 35 10 44 23 41 9 -3 147 -22 305 -44z m1584 -28 c124 -63 188
-236 188 -501 0 -134 -3 -156 -24 -209 -47 -119 -137 -182 -256 -180 -131 2
-219 92 -271 279 -25 92 -31 323 -10 405 31 121 90 190 184 217 57 16 148 11
189 -11z m-611 -37 c54 -26 101 -80 115 -134 6 -22 9 -71 7 -110 -8 -115 -53
-183 -192 -287 -140 -105 -196 -167 -196 -218 0 -20 5 -20 215 -20 l215 0 0
-50 0 -50 -275 0 -275 0 0 48 c0 64 22 134 57 185 15 22 71 74 123 115 136
108 169 141 196 197 99 208 -118 344 -298 186 -20 -17 -38 -31 -42 -31 -3 0
-6 25 -6 56 0 62 5 68 72 104 83 45 204 48 284 9z"/>
        <path d="M10621 16925 c-13 -86 -21 -159 -17 -162 3 -3 50 -8 103 -11 91 -4
101 -2 133 20 19 13 43 39 52 58 22 42 23 121 4 158 -19 36 -77 68 -150 81
-110 20 -99 32 -125 -144z"/>
        <path d="M8012 16986 c-29 -7 -55 -16 -58 -18 -4 -4 39 -230 51 -264 4 -13
113 5 168 27 90 37 114 172 42 239 -31 29 -121 37 -203 16z"/>
        <path d="M7316 16708 c-3 -29 -8 -115 -11 -192 -4 -108 -2 -137 8 -133 6 2 59
19 117 36 58 18 109 36 113 40 6 6 -134 197 -219 299 -1 2 -5 -20 -8 -50z"/>
        <path d="M12314 16581 c-90 -41 -159 -127 -195 -242 -63 -203 43 -373 242
-387 60 -4 75 -1 123 22 157 77 252 337 178 482 -61 118 -230 178 -348 125z"/>
        <path d="M5935 16220 c-110 -43 -180 -142 -180 -255 1 -149 110 -315 238 -362
50 -18 140 -15 190 6 123 53 190 170 167 293 -25 129 -113 258 -211 307 -73
37 -129 40 -204 11z"/>
        <path d="M9348 11663 c-16 -17 -19 -68 -33 -444 -8 -233 -15 -459 -15 -501 l0
-78 -732 -2 -733 -3 -2 -200 c-2 -110 0 -274 5 -365 l7 -165 35 -5 c35 -5 35
-5 35 -55 l0 -50 -41 -5 c-38 -6 -59 -19 -159 -103 -38 -32 -17 -30 -595 -48
-301 -9 -347 -13 -361 -27 -11 -12 -23 -68 -39 -179 -12 -89 -41 -285 -65
-435 -42 -265 -43 -274 -26 -298 24 -34 49 -37 55 -8 3 13 33 203 67 423 34
220 65 409 70 421 7 19 20 21 440 37 238 9 437 13 441 9 5 -5 5 -233 1 -507
l-6 -498 -296 6 c-163 4 -375 10 -471 13 l-175 5 30 -26 c17 -14 40 -30 53
-36 12 -5 197 -11 410 -14 213 -3 406 -8 429 -11 39 -5 47 -12 114 -95 l71
-91 201 7 c111 4 205 9 210 12 4 2 7 20 7 39 l0 34 260 0 260 0 0 -35 0 -35
204 0 205 0 3 33 3 32 105 5 105 5 3 47 3 47 44 7 c56 8 281 2 291 -9 4 -4 10
-26 13 -50 l6 -42 102 -3 102 -3 3 -32 3 -32 202 -3 202 -2 3 32 3 33 260 0
260 0 3 -37 3 -38 77 0 c42 0 134 -3 203 -7 l126 -6 72 91 c67 84 75 91 114
96 23 3 201 7 396 10 l355 5 35 37 36 36 -95 -6 c-52 -3 -239 -9 -416 -12
l-321 -7 -6 24 c-5 20 -11 781 -8 932 l1 47 423 0 c232 0 427 -4 434 -8 11 -7
46 -221 115 -707 12 -82 23 -152 24 -154 4 -5 84 47 84 54 0 3 -22 150 -50
328 -27 177 -55 363 -61 412 -7 50 -18 102 -26 118 -13 26 -16 27 -101 27
-209 0 -473 8 -479 14 -4 4 -11 440 -16 969 -4 529 -10 972 -13 984 -11 53 43
50 -1259 58 -1185 7 -1210 7 -1227 -12z m1052 -104 c393 -6 846 -14 1005 -18
l290 -6 6 -210 c4 -115 10 -537 13 -937 l7 -728 -97 0 -97 0 -67 50 c-37 28
-73 57 -80 65 -7 8 -29 15 -50 15 -41 0 -50 11 -50 58 0 39 11 50 50 54 l35 3
3 355 c2 325 1 356 -15 368 -13 9 -224 12 -976 12 l-959 0 6 123 c3 67 9 273
12 457 4 210 10 340 17 348 8 10 36 12 121 8 61 -4 433 -11 826 -17z m898
-1127 l-3 -46 -1685 -1 c-983 0 -1690 3 -1697 8 -13 9 -18 69 -8 79 3 3 769 6
1701 6 l1695 0 -3 -46z m0 -354 l3 -46 -1698 1 -1698 2 -3 24 c-2 12 -1 33 2
45 l5 21 1693 -1 1693 -1 3 -45z m-263 -176 l90 -7 0 -50 0 -50 -80 -3 c-109
-3 -121 -7 -133 -42 l-11 -30 -233 0 c-247 0 -258 2 -258 46 0 12 -6 24 -14
27 -7 3 -95 6 -195 7 -140 0 -182 -2 -185 -12 -3 -7 -7 -25 -10 -41 l-6 -27
-398 2 -397 3 -3 25 c-7 48 -13 50 -196 50 -94 0 -181 -3 -193 -6 -16 -4 -23
-15 -25 -38 l-3 -31 -241 -3 -240 -2 -15 32 -14 33 -97 3 -98 3 0 54 c0 30 1
56 3 57 1 1 322 4 712 7 812 7 2107 3 2240 -7z m-3179 -631 c0 -238 -3 -434
-6 -436 -4 -3 -22 14 -40 37 l-34 42 -3 377 -3 377 32 21 c18 11 38 19 43 17
6 -2 10 -156 11 -435z m3549 412 l30 -28 -3 -372 -3 -371 -39 -44 -39 -43 -1
443 c0 354 3 442 13 442 7 0 26 -12 42 -27z m-1182 -35 c15 -12 16 -46 9 -418
-4 -223 -6 -424 -4 -448 l3 -43 87 3 87 3 5 445 5 445 248 3 c136 1 248 1 249
0 1 -2 5 -205 8 -453 l5 -450 87 -3 88 -3 2 458 3 458 30 0 30 0 5 -455 5
-455 87 -3 86 -3 27 36 c34 44 45 44 45 2 0 -25 -9 -42 -41 -72 l-40 -40 -207
0 -207 0 -3 -51 -3 -52 -162 -7 c-89 -3 -202 -5 -252 -3 l-90 3 -5 60 -5 60
-205 0 -205 0 -3 -47 -3 -48 -58 0 c-44 0 -60 4 -65 16 -3 9 -6 124 -7 257 -1
133 -4 266 -7 295 l-7 54 -245 0 c-208 0 -245 -2 -248 -15 -2 -8 -6 -147 -10
-308 l-7 -294 -60 0 -60 0 -3 48 -3 47 -205 0 -204 0 0 -59 c0 -44 -4 -60 -16
-65 -20 -8 -277 -6 -404 3 l-95 6 -3 54 -3 54 -206 -6 -205 -7 -44 44 c-33 33
-44 51 -44 75 0 40 13 39 47 -4 l28 -35 88 0 87 0 0 438 c0 240 3 447 6 460 8
27 58 32 68 5 4 -9 4 -190 0 -402 -4 -212 -4 -412 0 -443 l7 -58 83 0 83 0 7
448 c4 246 11 450 15 455 4 4 115 6 247 5 l239 -3 6 -445 c3 -245 6 -446 7
-447 1 -2 43 -3 93 -3 l91 0 -7 456 -8 455 34 -3 34 -3 6 -200 c4 -110 7 -311
8 -447 0 -136 4 -249 9 -251 4 -2 40 -2 80 1 l74 4 -4 442 -3 441 395 0 395 0
0 -440 0 -440 70 -6 c39 -3 73 -3 78 1 4 3 11 206 17 450 7 345 12 445 22 451
17 11 21 11 41 -3z m-448 -550 c3 -7 1 -123 -3 -258 l-7 -245 -170 0 -170 0 3
245 c1 135 5 251 7 258 3 9 47 12 170 12 123 0 167 -3 170 -12z m-1941 -489
c23 -28 26 -39 26 -115 0 -93 -9 -103 -49 -60 -20 21 -24 39 -29 115 -5 104 5
116 52 60z m3586 -57 c0 -84 -1 -89 -29 -116 -16 -16 -34 -25 -40 -22 -6 4
-11 39 -11 81 0 69 2 77 31 110 17 19 35 35 40 35 5 0 9 -40 9 -88z"/>
        <path d="M4209 11463 c-22 -52 -98 -293 -122 -388 -62 -244 -106 -559 -117
-840 -12 -302 -12 -576 -1 -593 6 -10 29 -13 82 -11 213 8 762 -55 1027 -117
421 -98 829 -289 1258 -589 92 -64 170 -112 174 -108 4 4 42 195 84 423 43
228 84 425 92 437 8 13 28 24 46 27 18 3 228 10 467 16 l434 10 41 32 c22 18
44 37 48 43 14 18 9 175 -4 175 -7 0 -65 -13 -129 -29 -204 -52 -297 -61 -626
-61 -320 0 -404 7 -583 46 -353 79 -695 247 -880 433 -41 42 -117 136 -169
208 -113 160 -227 304 -349 439 -93 104 -235 219 -407 329 -99 64 -300 165
-328 165 -12 0 -25 -16 -38 -47z"/>
        <path d="M15003 10989 c-285 -35 -628 -181 -958 -408 -271 -186 -421 -282
-473 -302 -145 -54 -411 -74 -663 -49 -195 20 -477 69 -777 136 -85 19 -158
34 -163 34 -5 0 -9 -144 -9 -338 l0 -339 122 -6 c66 -4 179 -7 249 -7 135 0
172 -7 188 -37 5 -11 42 -190 81 -398 39 -209 72 -380 73 -382 2 -1 65 43 142
98 77 55 185 127 240 161 55 33 150 91 210 128 297 183 1122 498 1607 615 125
30 354 75 381 75 10 0 4 116 -14 315 -20 217 -77 488 -131 625 -16 41 -33 78
-36 81 -4 3 -35 2 -69 -2z"/>
        <path d="M15198 9685 c-3 -3 -43 -12 -89 -19 -481 -79 -1436 -428 -1946 -711
-424 -235 -701 -461 -1019 -830 -234 -271 -514 -713 -631 -995 -58 -138 -113
-290 -113 -309 0 -9 23 -39 51 -66 126 -123 263 -319 369 -527 l64 -127 51 45
c319 283 743 495 1216 609 379 91 825 117 1189 70 169 -22 152 -28 211 73 366
618 655 1511 729 2246 12 123 15 429 5 500 -7 45 -8 46 -44 46 -21 0 -40 -2
-43 -5z"/>
        <path d="M4292 9369 c-153 -10 -277 -28 -298 -44 -17 -12 -17 -24 -6 -191 27
-391 103 -794 220 -1166 159 -502 372 -969 621 -1363 154 -243 308 -460 405
-570 l35 -40 1 35 c0 19 -5 116 -11 214 -11 160 -15 183 -35 214 -13 18 -33
59 -44 90 -12 31 -32 68 -45 82 -41 44 -54 85 -69 211 -16 141 -31 187 -93
280 -39 60 -54 99 -36 99 4 0 37 -14 73 -31 36 -18 76 -37 90 -43 17 -8 39
-40 68 -96 l43 -85 -6 55 c-3 30 -12 168 -21 305 l-15 250 -42 37 c-23 20 -47
37 -53 38 -5 0 -29 -14 -53 -31 -76 -57 -177 -47 -258 24 -61 53 -100 160 -69
186 13 11 21 9 51 -18 68 -60 117 -51 202 37 65 69 83 66 149 -19 25 -33 49
-58 52 -55 3 3 4 36 3 74 -2 55 -6 70 -24 84 -12 9 -42 56 -67 105 -37 73 -57
97 -112 144 -51 43 -80 58 -122 68 -55 12 -87 35 -70 50 5 5 32 16 61 25 l51
17 79 -39 c90 -46 109 -65 151 -147 l31 -60 1 45 c0 24 -5 118 -11 207 l-11
163 -57 88 c-79 120 -114 182 -108 189 13 12 90 -58 140 -127 17 -24 17 -21
12 106 -6 108 -4 132 8 142 22 19 47 -11 48 -56 1 -20 4 -48 8 -62 6 -22 12
-17 51 59 47 89 106 161 133 161 10 0 17 -4 17 -9 0 -5 -29 -65 -65 -134 -36
-68 -77 -158 -91 -198 -24 -69 -25 -82 -19 -197 4 -67 10 -124 14 -127 4 -2
23 28 42 66 18 39 36 72 40 74 3 2 24 -2 46 -10 22 -8 72 -14 110 -13 98 1
129 -16 197 -112 84 -116 150 -166 263 -200 56 -17 60 -35 19 -76 -34 -34 -34
-34 -130 -34 -115 0 -181 21 -257 83 -86 70 -112 87 -146 93 -51 10 -97 -3
-137 -39 l-38 -32 11 -120 c5 -66 20 -255 32 -420 12 -165 23 -302 25 -303 1
-2 22 9 46 25 24 17 71 45 106 63 58 31 117 84 153 139 11 17 21 22 33 18 15
-6 17 -14 12 -49 -9 -54 -52 -133 -91 -165 -16 -14 -52 -39 -80 -57 -54 -34
-107 -106 -142 -192 l-21 -51 20 -264 c10 -145 21 -265 24 -268 2 -3 12 5 20
18 9 12 44 56 78 98 33 41 106 141 162 221 94 138 102 153 128 252 15 58 39
124 52 147 25 43 57 69 73 58 5 -3 33 0 61 6 28 6 54 8 58 5 3 -4 -17 -26 -44
-51 l-51 -44 -18 -108 c-36 -221 -115 -409 -241 -573 -23 -30 -90 -106 -148
-168 l-106 -113 1 -57 c0 -31 6 -120 12 -198 l12 -141 61 -69 c89 -99 364
-366 469 -455 136 -115 349 -277 460 -350 147 -97 375 -232 382 -226 3 4 3 17
0 29 -4 16 -32 39 -84 70 -43 26 -90 59 -104 75 -46 50 -116 195 -158 328
l-41 130 -67 66 c-123 119 -232 208 -293 239 -43 22 -60 36 -60 50 0 11 3 20
7 20 29 0 320 -121 368 -154 165 -110 310 -235 363 -311 11 -16 22 -28 25 -25
2 3 -4 100 -14 215 -10 116 -18 216 -18 223 -1 6 -7 12 -15 12 -25 0 -76 51
-118 116 -49 78 -123 146 -176 162 -21 7 -81 12 -132 12 l-92 0 7 27 c10 41
43 82 73 90 15 4 59 7 97 7 90 -1 136 -22 244 -108 45 -37 84 -66 86 -64 6 6
-30 383 -38 396 -5 6 -17 12 -28 12 -11 0 -45 11 -77 24 -45 19 -69 23 -114
19 -54 -5 -88 5 -88 27 0 3 34 24 76 45 68 35 84 39 151 39 l76 1 -6 85 c-3
47 -9 93 -12 102 -4 11 -33 26 -73 38 -122 38 -189 90 -199 156 -3 21 -12 52
-20 67 -16 31 -82 66 -125 67 -16 0 -28 4 -28 10 0 17 34 27 113 33 l78 6 67
-71 c37 -39 83 -77 102 -85 19 -8 43 -22 53 -31 16 -14 17 -13 17 24 0 21 -7
128 -15 236 -16 216 -17 219 -92 322 -51 69 -87 135 -79 144 6 6 29 -13 104
-82 l42 -40 0 64 c0 43 -7 80 -20 109 -23 49 -24 61 -10 61 6 0 28 -27 50 -61
l39 -61 16 39 c9 21 26 61 38 88 16 39 22 79 27 178 3 73 9 128 15 129 6 0 19
-14 30 -33 15 -25 20 -57 23 -130 4 -95 4 -98 -41 -210 -47 -117 -72 -197 -64
-206 3 -2 23 5 46 16 35 18 112 100 148 157 11 17 12 16 12 -10 1 -48 -37
-112 -99 -168 -52 -46 -61 -61 -75 -113 -8 -32 -15 -80 -15 -106 l0 -47 38 10
c20 6 55 21 77 33 22 13 60 29 85 35 25 6 54 14 64 17 10 3 39 24 63 46 37 34
51 40 86 40 49 0 161 -46 155 -64 -2 -7 -25 -18 -51 -26 -31 -9 -64 -31 -104
-68 -70 -67 -122 -93 -211 -107 -37 -6 -96 -18 -132 -28 -62 -16 -65 -19 -63
-46 3 -52 66 -609 69 -613 2 -2 25 16 51 39 85 74 98 77 295 64 103 -7 109 -6
161 20 49 24 100 70 149 137 17 24 18 24 33 5 22 -29 19 -58 -16 -131 -25 -51
-40 -70 -68 -84 -20 -10 -56 -30 -81 -44 -25 -14 -81 -35 -124 -47 -102 -27
-128 -43 -177 -107 -43 -57 -93 -89 -159 -99 l-42 -7 6 -51 c3 -28 15 -152 26
-276 12 -124 23 -231 25 -238 8 -22 71 61 111 144 19 40 51 119 69 175 35 102
74 169 100 169 11 0 11 -8 -2 -46 -25 -75 -14 -171 29 -242 20 -31 39 -67 42
-79 9 -29 -18 -86 -86 -182 -42 -60 -66 -83 -118 -113 -36 -21 -75 -38 -88
-38 -12 0 -25 -7 -28 -15 -6 -14 24 -345 31 -353 2 -2 30 14 62 35 32 22 101
63 153 93 52 29 131 79 176 111 44 32 105 67 134 78 72 28 122 64 191 140 32
36 61 62 65 58 13 -13 -17 -117 -57 -197 -48 -95 -104 -149 -246 -234 -54 -33
-113 -70 -132 -84 -43 -32 -91 -108 -91 -144 0 -45 -25 -83 -78 -117 -39 -24
-60 -31 -100 -31 -45 0 -52 -3 -52 -19 0 -37 13 -52 71 -81 90 -46 156 -41
504 37 773 173 1206 307 1738 536 210 91 389 204 566 359 82 71 104 98 82 98
-19 0 -448 169 -579 227 -131 59 -343 179 -414 234 -124 96 -297 252 -413 371
-223 229 -425 450 -489 533 -33 44 -112 139 -175 210 -63 72 -168 202 -235
290 -202 267 -681 725 -1081 1034 -146 113 -396 286 -525 364 -135 81 -388
205 -543 265 -297 116 -453 152 -742 171 -173 12 -203 12 -373 0z"/>
        <path d="M7000 9324 c-6 -14 -10 -61 -10 -105 l0 -79 74 0 74 0 6 31 c3 17 6
65 6 105 l0 74 -70 0 c-66 0 -71 -1 -80 -26z"/>
        <path d="M7207 9343 c-4 -3 -7 -51 -7 -105 l0 -99 88 3 87 3 3 103 3 102 -84
0 c-46 0 -87 -3 -90 -7z"/>
        <path d="M7440 9281 c0 -38 -3 -83 -6 -100 l-6 -31 76 0 76 0 0 88 c0 55 -4
92 -12 100 -7 7 -38 12 -70 12 l-58 0 0 -69z"/>
        <path d="M7032 9083 l-43 -4 3 -92 3 -92 73 -3 72 -3 0 101 0 100 -32 -2 c-18
-1 -52 -3 -76 -5z"/>
        <path d="M7198 8990 l-3 -100 87 0 86 0 4 93 c2 50 3 95 1 100 -3 4 -42 7 -88
7 l-84 0 -3 -100z"/>
        <path d="M7430 8990 l0 -99 37 -7 c20 -4 52 -3 72 2 l36 9 3 98 3 97 -76 0
-75 0 0 -100z"/>
        <path d="M6985 8430 c51 -36 119 -68 175 -84 79 -22 380 -72 555 -91 336 -36
736 -103 952 -159 110 -29 307 -98 429 -150 102 -44 315 -162 402 -223 21 -15
21 -13 -7 51 -58 128 -83 231 -96 401 -4 44 -9 82 -12 85 -2 3 -215 8 -471 12
-257 3 -611 9 -787 12 l-320 5 -62 70 -63 69 -172 6 c-95 3 -258 8 -363 11
l-190 5 30 -20z"/>
        <path d="M11820 8439 l-295 -8 -65 -70 -65 -70 -195 -5 c-107 -3 -439 -8 -737
-12 -386 -5 -543 -10 -543 -18 0 -60 55 -150 198 -327 172 -213 394 -434 667
-665 131 -110 507 -377 516 -366 4 4 21 48 39 97 176 485 489 1053 749 1355
91 105 88 100 55 98 -16 0 -162 -5 -324 -9z"/>
        <path d="M7219 8201 c6 -11 17 -24 25 -28 15 -9 142 -154 226 -258 30 -37 100
-122 156 -189 55 -66 179 -224 274 -351 227 -301 563 -698 770 -909 218 -223
427 -380 656 -495 105 -52 405 -179 535 -226 l72 -26 40 38 c81 79 227 277
281 382 28 53 56 182 56 256 0 282 -106 563 -292 771 -31 34 -61 70 -69 81
-46 65 -549 411 -762 524 -206 109 -602 237 -835 269 -44 6 -94 15 -113 21
-19 5 -86 17 -149 25 -63 9 -140 20 -170 24 -30 4 -118 15 -195 24 -201 24
-429 61 -498 82 -16 5 -17 3 -8 -15z"/>
        <path d="M13610 6654 c-313 -29 -565 -89 -911 -214 -168 -61 -457 -198 -550
-260 -127 -86 -219 -161 -219 -179 0 -9 11 -51 25 -92 95 -275 136 -534 136
-844 -1 -201 -17 -331 -55 -442 -14 -40 -21 -73 -17 -73 5 0 54 20 110 45 709
315 1375 848 1901 1525 112 143 320 447 320 466 0 14 -49 27 -180 49 -93 16
-459 28 -560 19z"/>
        <path d="M14472 14960 c-117 -122 -212 -225 -212 -230 0 -18 137 -132 190
-158 44 -22 69 -27 125 -27 86 1 134 23 217 103 110 105 138 215 84 326 -28
57 -158 206 -180 206 -7 0 -108 -99 -224 -220z"/>
        <path d="M15210 14349 c-91 -33 -171 -61 -178 -64 -8 -3 16 -39 69 -102 45
-54 84 -99 88 -101 7 -2 195 318 189 323 -2 2 -77 -24 -168 -56z"/>
        <path d="M2971 13205 c-27 -23 -107 -152 -99 -160 7 -7 212 -115 218 -115 15
0 70 138 70 177 0 97 -117 158 -189 98z"/>
        <path d="M3345 13089 c-17 -5 -45 -23 -62 -41 -40 -41 -106 -159 -96 -169 9
-8 232 -129 239 -129 2 0 22 36 44 80 47 94 54 160 19 204 -36 45 -95 68 -144
55z"/>
        <path d="M16070 13041 c-120 -39 -198 -97 -245 -182 -57 -104 -35 -230 58
-323 85 -85 204 -96 344 -32 99 46 158 97 194 171 28 57 31 72 26 121 -12 117
-87 215 -188 247 -65 21 -119 21 -189 -2z"/>
        <path d="M10240 2821 c-59 -31 -84 -95 -89 -223 -6 -177 27 -340 85 -415 71
-93 190 -82 244 23 24 46 25 57 24 199 -1 167 -22 270 -70 352 -46 79 -121
104 -194 64z"/>
    </g>
</svg>
